# xmcd CD database file
#
# Track frame offsets:
#	150
#	18601
#	30669
#	49495
#	67243
#	75413
#	98316
#	113117
#	125683
#	141139
#	153684
#	167219
#	195567
#
# Disc length: 2789 seconds
#
# Revision: 0
# Processed by: cddbd v1.5.2PL0 Copyright (c) Steve Scherf et al.
# Submitted via: CDex 1.51
#
DISCID=b20ae30d
DTITLE=T M O - Blues Soldasis
DYEAR=1900
DGENRE=Blues
TTITLE0=Same Thing -McKinley Morganfield-
TTITLE1=Take Me Back -Corey Harris-
TTITLE2=Original Blues (From Ashes To Ashes) Bayless Rose
TTITLE3=Pony Blues -Charly Patton-
TTITLE4=Silver City -Meancel Lipscomb-
TTITLE5=Things 'Bout Comin' My Way -W. Vinson-
TTITLE6=That' S Alright -A. Crudup-
TTITLE7=This Train - Big Bill Broonzy-
TTITLE8=Ain' T Misbehavin' -Fats Waller-
TTITLE9=Change My Way -M: Mississippi John Hurt T: Peter Kern-
TTITLE10=Hallelujah -H. Dorigatti-
TTITLE11=Killin' Floor -Chester Burnett-
TTITLE12=T.Mo Tune -H. Dorigatti-
EXTD=
EXTT0=
EXTT1=
EXTT2=
EXTT3=
EXTT4=
EXTT5=
EXTT6=
EXTT7=
EXTT8=
EXTT9=
EXTT10=
EXTT11=
EXTT12=
PLAYORDER=
